<svg aria-hidden="true" style="position: absolute; width: 0; height: 0; overflow: hidden;" version="1.1" xmlns="http://www.w3.org/2000/svg" xmlns:xlink="http://www.w3.org/1999/xlink">
<defs>
<symbol id="icon-Vector1" viewBox="0 0 34 32">
<path fill="none" stroke="#fecc01" style="stroke: var(--color1, #fecc01)" stroke-linejoin="miter" stroke-linecap="butt" stroke-miterlimit="4" stroke-width="1.6" d="M17.497 1.226v0l4.38 7.861c0.423 0.759 1.161 1.289 2.018 1.424l8.207 1.291c0.662 0.104 0.981 1.050 0.39 1.56l-6.114 5.276c-0.787 0.679-1.146 1.737-0.959 2.76l1.599 8.748c0.146 0.798-0.628 1.25-1.165 0.956l-7.728-4.238c-0.828-0.454-1.821-0.454-2.649 0h-0l-7.728 4.238c-0 0-0 0-0 0-0.537 0.294-1.311-0.158-1.165-0.956v0l1.599-8.748c0.187-1.023-0.172-2.081-0.959-2.76h-0l-6.114-5.276c-0.591-0.51-0.272-1.456 0.39-1.56l8.207-1.291c0 0 0 0 0 0 0.857-0.135 1.595-0.665 2.018-1.424l4.38-7.861c0.317-0.569 1.077-0.569 1.393 0z"></path>
</symbol>
</defs>
</svg>
