<svg width="21" height="20" viewBox="0 0 21 20" fill="none" xmlns="http://www.w3.org/2000/svg">
<path d="M10.9355 0.766505L10.9355 0.766547L13.6727 5.67936L13.6727 5.67938C13.9369 6.15348 14.3984 6.48499 14.9339 6.5692L20.0634 7.37611C20.4774 7.44122 20.6766 8.03225 20.3072 8.351L16.4859 11.6483L16.4859 11.6483C15.9943 12.0725 15.7697 12.7339 15.8866 13.3734L16.8862 18.8407L16.8862 18.8407C16.9774 19.3394 16.4934 19.6222 16.1579 19.4382L11.3278 16.7893L11.3277 16.7893C10.8103 16.5057 10.1896 16.5056 9.67226 16.7893L9.67223 16.7893L4.84212 19.4382C4.84211 19.4382 4.8421 19.4382 4.84209 19.4382C4.50655 19.6222 4.02261 19.3394 4.11379 18.8407L3.62195 18.7507L4.11379 18.8407L5.1134 13.3734C5.23032 12.7339 5.00572 12.0725 4.51408 11.6483L4.51407 11.6483L0.692747 8.351C0.323371 8.03228 0.522615 7.44123 0.936589 7.37611L6.06616 6.5692C6.06617 6.5692 6.06617 6.5692 6.06618 6.5692C6.60156 6.48499 7.06319 6.1535 7.32735 5.67936L10.0645 0.766546L10.0646 0.766505C10.2625 0.411165 10.7375 0.411165 10.9355 0.766505Z" stroke="#FECC01"/>
</svg>
